<?xml version="1.0" encoding="UTF-8" standalone="no"?>
<!-- Created with Inkscape (http://www.inkscape.org/) -->

<svg
   xmlns:dc="http://purl.org/dc/elements/1.1/"
   xmlns:cc="http://creativecommons.org/ns#"
   xmlns:rdf="http://www.w3.org/1999/02/22-rdf-syntax-ns#"
   xmlns:svg="http://www.w3.org/2000/svg"
   xmlns="http://www.w3.org/2000/svg"
   xmlns:xlink="http://www.w3.org/1999/xlink"
   version="1.1"
   width="256"
   height="256"
   id="svg2">
  <defs
     id="defs4">
    <linearGradient
       id="linearGradient13674">
      <stop
         id="stop13676"
         style="stop-color:#15a0dd;stop-opacity:1"
         offset="0" />
      <stop
         id="stop13678"
         style="stop-color:#15a0dd;stop-opacity:0"
         offset="1" />
    </linearGradient>
    <linearGradient
       id="linearGradient2555">
      <stop
         id="stop2557"
         style="stop-color:#ffffff;stop-opacity:1"
         offset="0" />
      <stop
         id="stop2559"
         style="stop-color:#ffffff;stop-opacity:0"
         offset="1" />
    </linearGradient>
    <linearGradient
       x1="-344.15295"
       y1="274.711"
       x2="-395.84943"
       y2="425.39993"
       id="linearGradient2449"
       xlink:href="#linearGradient2555"
       gradientUnits="userSpaceOnUse"
       gradientTransform="matrix(-0.5914583,0,0,0.5914584,210.0216,142.2324)" />
    <linearGradient
       x1="487.21298"
       y1="528.6297"
       x2="486.49915"
       y2="419.34396"
       id="linearGradient13680"
       xlink:href="#linearGradient13674"
       gradientUnits="userSpaceOnUse" />
  </defs>
  <metadata
     id="metadata15">
    <rdf:RDF>
      <cc:Work
         rdf:about="">
        <dc:format>image/svg+xml</dc:format>
        <dc:type
           rdf:resource="http://purl.org/dc/dcmitype/StillImage" />
        <dc:creator>
          <cc:Agent>
            <dc:title>User:ZyMOS</dc:title>
          </cc:Agent>
        </dc:creator>
        <cc:license
           rdf:resource="http://creativecommons.org/licenses/publicdomain/" />
        <dc:publisher>
          <cc:Agent>
            <dc:title>Open Icon Library</dc:title>
          </cc:Agent>
        </dc:publisher>
        <dc:title></dc:title>
      </cc:Work>
      <cc:License
         rdf:about="http://creativecommons.org/licenses/publicdomain/">
        <cc:permits
           rdf:resource="http://creativecommons.org/ns#Reproduction" />
        <cc:permits
           rdf:resource="http://creativecommons.org/ns#Distribution" />
        <cc:permits
           rdf:resource="http://creativecommons.org/ns#DerivativeWorks" />
      </cc:License>
    </rdf:RDF>
  </metadata>
  <g
     transform="translate(-373.642,-318.344)"
     id="layer1">
    <rect
       width="235.00784"
       height="234.98955"
       rx="35.487503"
       ry="35.487503"
       x="-619.14587"
       y="328.84921"
       transform="scale(-1,1)"
       id="rect1942"
       style="fill:#314358;fill-opacity:1;fill-rule:evenodd;stroke:none" />
    <path
       d="m 557.05665,338.89518 -110.82944,0 c -29.33688,0 -52.95465,23.80974 -52.95465,53.38507 l 0,108.12736 c 0.9496,23.08605 4.60229,8.49154 11.55502,-17.07471 8.08056,-29.71315 34.39648,-55.68287 66.44461,-75.1457 24.46133,-14.85525 51.84109,-24.34125 101.67955,-25.24367 28.26482,-0.51176 25.7695,-36.68291 -15.89509,-44.04835 z"
       id="path1950"
       style="fill:url(#linearGradient2449);fill-opacity:1;fill-rule:evenodd;stroke:none" />
    <g
       transform="translate(371.7665,323.12879)"
       id="g11">
      <path
         d="m 168.08,170.918 c -2.969,1.416 -8.647,2.648 -12.881,2.754 -12.783,0.342 -15.264,-8.979 -15.367,-15.736 v -49.705 h 32.065 V 84.055 H 139.943 V 43.382 c 0,0 -23.008,0 -23.383,0 -0.385,0 -1.057,0.337 -1.152,1.192 -1.368,12.448 -7.192,34.296 -31.416,43.032 v 20.624 h 16.16 v 52.167 c 0,17.863 13.176,43.24 47.959,42.641 11.736,-0.201 24.77,-5.113 27.648,-9.354 l -7.679,-22.766"
         id="path13"
         style="fill:#ffffff" />
    </g>
  </g>
</svg>
